<svg xmlns="http://www.w3.org/2000/svg" version="1.1" xmlns:xlink="http://www.w3.org/1999/xlink" xmlns:svgjs="http://svgjs.dev/svgjs" viewBox="0 0 8.011280677493804 7.589904305052375"><g transform="matrix(1,0,0,1,3.9985257641172187,5.747139915115582)"><g><path d=" M -2.7884080737651797 -0.3428150070616953 L -2.2064099873714538 -0.7406883882196222 L -2.095795543815491 -0.5788846649101609 L -2.4169264028327384 -0.35934885601592886 L -2.0207357428310875 -0.46908928123588345 L -1.9281808002638536 -0.3337024923442933 L -2.1761640864924754 -0.0018526923575320764 L -1.8525566398735527 -0.2230815794694574 L -1.74194219631759 -0.061277856159995966 L -2.323940282711316 0.33659552499793094 L -2.4576934619090873 0.14094510446557199 L -2.17949270289721 -0.26365017193445645 L -2.655219253973306 -0.14799011572989484 L -2.7884080737651797 -0.3428150070616953 M -2.6092586981692723 -1.3030645733289816 L -2.508085721979762 -0.9461261628308162 Q -2.4646473177901473 -0.9615568154890695 -2.449135937003234 -0.9893398510698583 Q -2.433624556216321 -1.0171228866506474 -2.443169176611558 -1.0507963216033045 Q -2.4565316451648895 -1.0979391305370245 -2.5045907356282293 -1.1061442401546067 L -2.561585754559786 -1.307222751729045 Q -2.502238917634295 -1.3105322754015933 -2.448237073200944 -1.2868616016089827 Q -2.3942352287675934 -1.2631909278163722 -2.353676581016234 -1.215441623187078 Q -2.3131179332648744 -1.1676923185577837 -2.2943013959142644 -1.101307546793974 Q -2.2716670104055603 -1.0214534010491014 -2.2877510734869952 -0.949853450526825 Q -2.30383513656843 -0.8782535000045487 -2.3564178402111895 -0.8254111942484809 Q -2.4090005438539484 -0.772568888492413 -2.493665180306343 -0.748570985784389 Q -2.5783298167587385 -0.724573083076365 -2.650202470720879 -0.7416192442993046 Q -2.722075124683019 -0.758665405522244 -2.773337931506898 -0.8111761152540469 Q -2.824600738330777 -0.8636868249858496 -2.8475078272793457 -0.9445030688722267 Q -2.87014221278805 -1.0243572146170992 -2.8548838961281877 -1.0952034126287593 Q -2.839625579468325 -1.1660496106404195 -2.788349671317891 -1.2180018121659395 Q -2.7370737631674564 -1.269954013691459 -2.6543333229980703 -1.2934065095197553 Q -2.632205065743467 -1.2996786886366252 -2.6092586981692723 -1.3030645733289816 M -2.6469354439590087 -1.087624412665526 Q -2.68157097705317 -1.0778070888304252 -2.6947491063972784 -1.0491263129171073 Q -2.7079272357413866 -1.0204455370037895 -2.698109911906286 -0.9858100039096279 Q -2.688292588071185 -0.9511744708154664 -2.663259495194978 -0.9343639306382093 Q -2.6382264023187703 -0.9175533904609523 -2.5997577488625523 -0.9211814341852493 L -2.6469354439590087 -1.087624412665526 M -2.6373699554734706 -1.9803633976384387 L -2.6301591014861696 -1.6094334802891181 Q -2.584226099771596 -1.6133269817324167 -2.5621676660097483 -1.6362600473795164 Q -2.540109232247901 -1.659193113026616 -2.540789501491986 -1.6941865014557973 Q -2.541741878433705 -1.743177245256651 -2.5861417282911265 -1.7633180826930244 L -2.5902039074915195 -1.9722786021701348 Q -2.5319621923753592 -1.9604083612152083 -2.485741927513047 -1.923799795058396 Q -2.4395216626507343 -1.8871912289015838 -2.41241870704869 -1.830707339183952 Q -2.3853157514466456 -1.7742234494663198 -2.3839746492225924 -1.7052364837059342 Q -2.3823614393009054 -1.6222521625738757 -2.4161011886945585 -1.5570840775102999 Q -2.4498409380882116 -1.4919159924467238 -2.514119235816431 -1.4541595302029913 Q -2.5783975335446505 -1.4164030679592587 -2.6663809101665916 -1.414692676716988 Q -2.7543642867885327 -1.4129822854747174 -2.8195518081162256 -1.447721845966347 Q -2.8847393294439185 -1.4824614064579769 -2.9209863569086276 -1.546268953033383 Q -2.9572333843733367 -1.610076499608789 -2.9588660305591405 -1.6940606318388238 Q -2.960479240480828 -1.7770449529708823 -2.927729584053093 -1.8416936962213533 Q -2.894979927625358 -1.9063424394718242 -2.8321916284120454 -1.9435698417703935 Q -2.7694033291987323 -1.9807972440689623 -2.6834195747727443 -1.9824687627829998 Q -2.6604239195192823 -1.982915796857684 -2.6373699554734706 -1.9803633976384387 M -2.7285230657502555 -1.7815541662459597 Q -2.7645162652774133 -1.7808544607377579 -2.7845459224471325 -1.7564605509719269 Q -2.8045755796168517 -1.7320666412060957 -2.80387587410865 -1.696073441678938 Q -2.8031761686004484 -1.6600802421517802 -2.7832328181152204 -1.6374635940485942 Q -2.763289467629992 -1.614846945945408 -2.725160592058064 -1.608586846296007 L -2.7285230657502555 -1.7815541662459597 M -2.743232409955861 -2.6984038776986043 Q -2.666559046804242 -2.737524784935271 -2.56003198941859 -2.7101024209825773 L -2.2433561006448794 -2.62858321177775 L -2.2922177673242254 -2.4387713640724065 L -2.5837145334431457 -2.513808923615688 Q -2.6301990675750666 -2.5257750460677726 -2.6630631873652737 -2.5084199421955704 Q -2.695927307155481 -2.4910648383233687 -2.706397664301055 -2.450390870957938 Q -2.7173666098821325 -2.4077800480036773 -2.6969672009795134 -2.3767137621551284 Q -2.6765677920768947 -2.345647476306579 -2.6300832579449738 -2.3336813538544945 L -2.3385864918260535 -2.2586437943112134 L -2.3874481585053995 -2.06883194660587 L -2.9307361511722245 -2.20868600276461 L -2.8818744844928785 -2.3984978504699535 L -2.804400260939677 -2.378554313049812 Q -2.834718867465902 -2.4132066159791696 -2.846507975053577 -2.461675853050597 Q -2.8582970826412524 -2.510145090122024 -2.844087312229402 -2.56534547440368 Q -2.8199057731074806 -2.6592829704619367 -2.743232409955861 -2.6984038776986043 M -2.5727430425550453 -2.950261193215704 Q -2.612497193379969 -3.010567556828421 -2.6147092982897133 -3.075300520547598 Q -2.6169214031994574 -3.140033484266775 -2.582663302050887 -3.197612842596773 Q -2.5530070353849603 -3.247457660255577 -2.51176575941735 -3.2717919397099475 Q -2.470524483449739 -3.296126219164318 -2.4252478968633655 -3.295950984788134 L -2.492280582680378 -3.3358335503043803 L -2.392062853947247 -3.5042746582548228 L -1.9099431521095016 -3.2174269755033604 L -2.0101608808426326 -3.0489858675529184 L -2.0771935666596457 -3.0888684330691643 Q -2.0554374674290066 -3.0491611019291014 -2.057402304103996 -3.0008766384150416 Q -2.0593671407789853 -2.952592174900981 -2.0885120925023957 -2.9036067506500873 Q -2.122770193650966 -2.846027392320089 -2.1807156272949513 -2.8170864745770303 Q -2.238661060938937 -2.7881455568339715 -2.3110577498463227 -2.79456579321959 Q -2.3834544387537084 -2.800986029605208 -2.458221665241915 -2.845470429604098 Q -2.5329888917301213 -2.8899548296029876 -2.5727430425550453 -2.950261193215704 M -2.3397826589420676 -3.210775030980408 Q -2.381507645391512 -3.2012736886650455 -2.4034941879196987 -3.1643197721248977 Q -2.4259920453904016 -3.126506462176839 -2.414608679782097 -3.0859889476006996 Q -2.4032253141737927 -3.0454714330245602 -2.3559586767387195 -3.017349111186182 Q -2.309551432711557 -2.989738104290319 -2.2676524070294155 -2.998554092430468 Q -2.225753381347274 -3.0073700805706167 -2.203255523876571 -3.0451833905186754 Q -2.181268981348384 -3.0821373070588236 -2.192826386189386 -3.123340175810176 Q -2.2043837910303874 -3.164543044561529 -2.2516504284654606 -3.1926653663999076 Q -2.2980576724926234 -3.22027637329577 -2.3397826589420676 -3.210775030980408 M -1.5824279644967802 -3.5455091400057674 L -1.8530772252230738 -3.606122485634521 L -1.695046934410518 -3.439010465762523 L -1.8374554383014379 -3.3043411744613884 L -2.345900721785313 -3.842005934049556 L -2.2034922178943934 -3.9766752253506903 L -1.9293440177456551 -3.6867721995727463 L -1.9678844564352316 -3.9531171536935537 L -1.7971395665660164 -4.11458288561073 L -1.763953542142411 -3.7578425209434334 L -1.408776778629791 -3.7097232248066407 L -1.5824279644967802 -3.5455091400057674 M -1.273416626003264 -3.800364260974983 Q -1.3378312211504264 -3.793940871524923 -1.3895381951581312 -3.8162318750682034 Q -1.441245169165836 -3.8385228786114842 -1.4718053083947744 -3.8856193528989285 L -1.3054562626357642 -3.977423464871469 Q -1.2889083299710555 -3.9557171080946105 -1.2632746897577538 -3.9527310589632325 Q -1.237641049544452 -3.9497450098318545 -1.2104998894469294 -3.9647235754694794 Q -1.1894873784036861 -3.976319884350221 -1.1820618756621033 -3.9918396107986722 Q -1.1746363729205205 -4.007359337247123 -1.1823672455076817 -4.021367677942619 Q -1.192514015778331 -4.039753625105456 -1.2174828008950818 -4.037395708696097 Q -1.2424515860118324 -4.0350377922867375 -1.2946523690060325 -4.019935532363387 Q -1.352981801054512 -4.001451015683154 -1.3952503458437147 -3.995256653617278 Q -1.4375188906329173 -3.9890622915514022 -1.4797748730379552 -4.0045762191967516 Q -1.5220308554429929 -4.020090146842101 -1.5500552685714526 -4.070870381863273 Q -1.5742142454063317 -4.114646446536696 -1.5701439417189347 -4.163150906413004 Q -1.566073638031538 -4.211655366289312 -1.531705079005185 -4.258034803009179 Q -1.497336519978832 -4.304414239729045 -1.432547944262165 -4.340169525444666 Q -1.3362406019806325 -4.393319274481399 -1.2549910655104495 -4.37648143544605 Q -1.1737415290402662 -4.3596435964107 -1.1224665168761943 -4.28742951795245 L -1.2774337858201144 -4.201906739956978 Q -1.2948572397782914 -4.223129917197139 -1.3180604869895731 -4.226886154523527 Q -1.3412637342008549 -4.230642391849914 -1.3684048942983775 -4.215663826212289 Q -1.3894174053416208 -4.204067517331547 -1.3960128056796985 -4.190148081481611 Q -1.4026082060177762 -4.176228645631675 -1.394877333430615 -4.16222030493618 Q -1.3852137426966633 -4.14470987906681 -1.360003367811564 -4.146630034829435 Q -1.3347929929264644 -4.1485501905920605 -1.2848264320558986 -4.163561612735484 Q -1.2251382991772533 -4.181653787658947 -1.1819488142046186 -4.187214218199703 Q -1.1387593292319842 -4.19277464874046 -1.0949030562284316 -4.1764306186916045 Q -1.051046783224879 -4.16008658864275 -1.0215728314863266 -4.106679789741173 Q -0.997897034188145 -4.063779246361218 -1.004005389120791 -4.015863299120066 Q -1.010113744053437 -3.9679473518789146 -1.0452070723848363 -3.922881197099251 Q -1.0803004007162356 -3.8778150423195874 -1.1424624125524971 -3.843509295214059 Q -1.2090020308561014 -3.806787650425043 -1.273416626003264 -3.800364260974983 M -0.46827462596238106 -4.614965272054043 Q -0.3979179524216211 -4.565950595800099 -0.37145696828650643 -4.45918067345021 L -0.2927956790848475 -4.141782813373724 L -0.48304026799919425 -4.094634150732974 L -0.555447142768917 -4.386795483708578 Q -0.5669937540278762 -4.433385995279439 -0.5978748915048113 -4.454064615836202 Q -0.6287560289817464 -4.474743236392967 -0.6695227266062493 -4.464639951541377 Q -0.7122306955462047 -4.454055557887331 -0.7298813409555824 -4.421349217269151 Q -0.7475319863649603 -4.388642876650971 -0.7359853751060011 -4.342052365080112 L -0.6635785003362784 -4.049891032104507 L -0.8538230892506251 -4.002742369463758 L -1.0318333461595781 -4.721012756181189 L -0.8415887572452314 -4.768161418821939 L -0.7792851673270978 -4.516766783470838 Q -0.763189707472891 -4.559905352896372 -0.7256494491329379 -4.593419961707599 Q -0.6881091907929848 -4.626934570518826 -0.6318123226448619 -4.640886725790068 Q -0.538631299503141 -4.663979948307986 -0.46827462596238106 -4.614965272054043 M -0.19146198142563997 -4.778574945546845 Q -0.22396610995047675 -4.805924198349086 -0.22551182709458978 -4.848896407490697 Q -0.22709349114903102 -4.892867970333277 -0.1966563099680663 -4.922981555336679 Q -0.16621912878710157 -4.953095140340081 -0.11425273633678074 -4.954964379677148 Q -0.06328569758742764 -4.956797672103886 -0.030763595607426725 -4.928948742451161 Q 0.0017585063725741867 -4.901099812798437 0.0033401704270154264 -4.857128249955857 Q 0.0048858875711284555 -4.814156040814246 -0.0255692670650004 -4.784542132661327 Q -0.05602442170112923 -4.75492822450841 -0.10699146045048236 -4.75309493208167 Q -0.15895785290080316 -4.751225692744604 -0.19146198142563997 -4.778574945546845 M -0.008184912119547721 -4.704615389933187 L 0.011981304574578022 -4.143977963690302 L -0.1838920208150928 -4.136932369265972 L -0.20405823750921853 -4.697569795508857 L -0.008184912119547721 -4.704615389933187 M 1.3141780529617897 -4.584319782496806 L 1.1044101258196908 -3.911250382848815 L 0.9172872856338664 -3.969568842025909 L 1.0330315745108543 -4.340950397292673 L 0.7903110726506284 -4.0091420821817945 L 0.6337389002502447 -4.057939160268751 L 0.6224448972528999 -4.472055623955352 L 0.5058079788987115 -4.097809943583703 L 0.3186851387128871 -4.156128402760797 L 0.528453065854986 -4.829197802408788 L 0.7547189491409063 -4.7586800737099555 L 0.7874275634765279 -4.26875850187601 L 1.0888668780441644 -4.654539968036572 L 1.3141780529617897 -4.584319782496806 M 1.4559646082965132 -4.187472434708798 Q 1.520013213162888 -4.22086444295435 1.5846339460383487 -4.216458664630563 Q 1.6492546789138096 -4.212052886306777 1.7030371843486385 -4.172097384693701 Q 1.7495951741280427 -4.1375090400137235 1.769593512802103 -4.093999656539839 Q 1.7895918514761635 -4.050490273065953 1.7847968225521496 -4.005467970841191 L 1.831312182639015 -4.068080439854872 L 1.9886460791349327 -3.9511956888673634 L 1.6540932969717064 -3.5008675463458854 L 1.4967594004757887 -3.6177522973333938 L 1.5432747605626544 -3.6803647663470755 Q 1.5015544293998027 -3.6627745995581567 1.4537225933090414 -3.669656856178376 Q 1.4058907572182804 -3.6765391127985954 1.36013549140059 -3.710531106708228 Q 1.306352985965761 -3.7504866083213053 1.2834768070144105 -3.811083063965062 Q 1.26060062806306 -3.871679519608819 1.2743757987266335 -3.9430429883669267 Q 1.2881509693902071 -4.014406457125034 1.3400334864101728 -4.084243441794141 Q 1.3919160034301383 -4.1540804264632465 1.4559646082965132 -4.187472434708798 M 1.6913434255512918 -3.9291416150458294 Q 1.6861499425614102 -3.97161840558412 1.6516328122077142 -3.99726148870893 Q 1.616312957892304 -4.023500922604085 1.5748452645070967 -4.016312014111801 Q 1.5333775711218895 -4.0091231056195165 1.5005782787529458 -3.964973287725254 Q 1.4683753371543464 -3.9216261937927053 1.4728692827781988 -3.8790462166587303 Q 1.4773632284020513 -3.836466239524755 1.5126830827174613 -3.8102268056295996 Q 1.5472002130711575 -3.7845837225047894 1.5893674438223941 -3.7918758175927585 Q 1.6315346745736303 -3.799167912680727 1.664333966942574 -3.8433177305749897 Q 1.6965369085411734 -3.8866648245075384 1.6913434255512918 -3.9291416150458294 M 2.4494665028328546 -3.3075192962264777 Q 2.4320674061115484 -3.2235563792137714 2.3443045879583164 -3.157241314938731 L 2.0834096649027996 -2.9601047147756563 L 1.9652482776490912 -3.1164820998486875 L 2.2053992618683895 -3.2979442302740254 Q 2.2436957643352544 -3.3268817128667703 2.250564863356508 -3.363406573970356 Q 2.2574339623777613 -3.3999314350739414 2.232113665109109 -3.4334408747324483 Q 2.205587639399093 -3.468546001993741 2.1685753293437307 -3.4719133309598065 Q 2.131563019288368 -3.475280659925872 2.093266516821503 -3.446343177333127 L 1.8531155326022046 -3.264881046907789 L 1.7349541453484965 -3.4212584319808204 L 2.3253585583793295 -3.8673779552856375 L 2.443519945633038 -3.7110005702126063 L 2.2368784010722464 -3.55485873705592 Q 2.2828709352629177 -3.557023638605625 2.328447722416011 -3.535686898629667 Q 2.374024509569104 -3.514350158653709 2.4089906343686707 -3.4680752181729138 Q 2.4668655995541604 -3.3914822132391844 2.4494665028328546 -3.3075192962264777 M 2.540194554958257 -3.0177245504223373 Q 2.6121395876452844 -3.0113087674099086 2.6641846446538837 -2.9727528075467218 Q 2.716229701662483 -2.9341968476835354 2.7399777023269793 -2.8715467681589324 Q 2.7605356730514687 -2.81731237095853 2.753915735720767 -2.7698868880433545 Q 2.747295798390065 -2.7224614051281795 2.718980140387437 -2.687131198337415 L 2.79191605386384 -2.7147781244841416 L 2.86138781700177 -2.531503264979333 L 2.3368102854599444 -2.3326580653855657 L 2.267338522322015 -2.5159329248903743 L 2.340274435798418 -2.5435798510371015 Q 2.295654180324643 -2.551263131681139 2.259083406334987 -2.582851555032067 Q 2.222512632345331 -2.614439978382996 2.2023091093919533 -2.6677392997695986 Q 2.1785611087274575 -2.7303893792942016 2.191971358684861 -2.79375668313522 Q 2.205381608642265 -2.8571239869762386 2.2554639696561436 -2.9097952041187685 Q 2.305546330670022 -2.9624664212612983 2.3868979264706263 -2.9933033773480324 Q 2.46824952227123 -3.024140333434766 2.540194554958257 -3.0177245504223373 M 2.599120060925031 -2.6732455456244253 Q 2.6176512019050318 -2.7118181630359954 2.6024099477472205 -2.752026423029397 Q 2.5868142458182977 -2.793169758836599 2.5480154481351516 -2.809476300417888 Q 2.5092166504520055 -2.825782841999177 2.457787480693003 -2.8062882145880232 Q 2.4072933867478006 -2.7871480349479816 2.3881174839753436 -2.7488657315577556 Q 2.368941581202887 -2.71058342816753 2.38453728313181 -2.669440092360328 Q 2.399778537289621 -2.6292318323669264 2.439222096765223 -2.6126349767642933 Q 2.478665656240825 -2.5960381211616603 2.5300948259998277 -2.615532748572814 Q 2.58058891994503 -2.634672928212856 2.599120060925031 -2.6732455456244253 M 3.108376385716797 -2.1421360952042896 L 2.3774306186018026 -2.0267312186319675 L 2.3468639215637284 -2.2203330704624253 L 3.0778096886787223 -2.335737947034748 L 3.108376385716797 -2.1421360952042896 M 2.4626720080569715 -1.2680836263246253 L 2.4985100969662204 -1.5155015549056654 L 2.3901452393331475 -1.5695946009482382 L 2.4196758245943686 -1.7734669740990154 L 3.0805528277941945 -1.4180579327936242 L 3.0481551954202337 -1.1943921253563636 L 2.3137384337786293 -1.04209957721346 L 2.343412371395487 -1.2469616220785615 L 2.4626720080569715 -1.2680836263246253 M 2.6181470306318086 -1.2950746869809597 L 2.854686960526129 -1.3376054001843611 L 2.639793236332995 -1.4445151158439082 L 2.6181470306318086 -1.2950746869809597 M 3.004991273078474 -0.2669218432309346 L 2.0474423715229557 -0.9491344941908977 L 2.1192881594638973 -1.1239463437753732 L 3.0768370610194156 -0.4417336928154101 L 3.004991273078474 -0.2669218432309346 M 2.537126087836418 -0.25215816379940736 Q 2.576797352467475 -0.16872740950236997 2.5658217558197425 -0.07735024453088335 Q 2.5548461591720097 0.014026920440603274 2.4930163774354366 0.09765154654085983 Q 2.4145401160005546 0.20379049505272384 2.304345726612481 0.23424450213536474 Q 2.194151337224407 0.26469850921800564 2.0813998556543885 0.21366809276109489 L 2.206842970523782 0.04400659173076682 Q 2.2503021137642163 0.05250970109190212 2.2871041794976836 0.038057782266031515 Q 2.323906245231151 0.0236058634401608 2.3500649990427784 -0.011773786063793867 Q 2.390492164024384 -0.06645142620626932 2.3755720851250453 -0.12785086631477116 Q 2.3606520062257066 -0.18925030642327312 2.295521287820699 -0.2374061941219504 Q 2.22958648647242 -0.28615659895271023 2.166510519874404 -0.2824253206562047 Q 2.1034345532763883 -0.27869404235969913 2.0630073882947824 -0.22401640221722374 Q 2.0368486344831553 -0.18863675271326907 2.0338180523670992 -0.14921511433993606 Q 2.030787470251043 -0.10979347596660305 2.051654962472345 -0.0707352147611433 L 1.9262118476029508 0.09892628626918465 Q 1.8443752569012188 0.006083556762145781 1.8411939512879836 -0.10819736594411877 Q 1.838012645674748 -0.22247828865038322 1.9164889071096298 -0.3286172371622472 Q 1.9783186888462032 -0.41224186326250367 2.06246583333166 -0.4495179692144886 Q 2.1466129778171172 -0.48679407516647344 2.2380072329393466 -0.4733185369340737 Q 2.329401488061576 -0.45984299870167394 2.413830197105104 -0.39741869983301814 Q 2.4974548232053606 -0.33558891809644475 2.537126087836418 -0.25215816379940736" fill="#343432" fill-rule="nonzero"></path></g><g><path d=" M -1.743630149147727 0.8229995920362717 L -1.821357421875 1.0711814102180899 L -1.8531756036931817 1.0711814102180899 L -1.9218119673295453 0.8629995920362716 L -1.9904483309659091 1.0711814102180899 L -2.0227210582386363 1.0711814102180899 L -2.100448330965909 0.8229995920362717 L -2.0681756036931818 0.8229995920362717 L -2.0063574218749998 1.0389086829453626 L -1.9368119673295454 0.8229995920362717 L -1.9049937855113637 0.8229995920362717 L -1.8363574218749998 1.0393632283999081 L -1.7749937855113636 0.8229995920362717 L -1.743630149147727 0.8229995920362717 M -1.4768108575994316 0.9593632283999081 L -1.6827199485085225 0.9593632283999081 Q -1.6813563121448862 0.9875450465817263 -1.669083584872159 1.0075450465817262 Q -1.6568108575994316 1.0275450465817262 -1.6368108575994316 1.037772319308999 Q -1.6168108575994316 1.0479995920362717 -1.593174493963068 1.0479995920362717 Q -1.562265403053977 1.0479995920362717 -1.5411290394176134 1.0329995920362718 Q -1.5199926757812499 1.0179995920362717 -1.513174493963068 0.9925450465817263 L -1.4795381303267043 0.9925450465817263 Q -1.4886290394176136 1.0289086829453626 -1.5184017666903407 1.051863228399908 Q -1.548174493963068 1.0748177738544535 -1.593174493963068 1.0748177738544535 Q -1.628174493963068 1.0748177738544535 -1.6559017666903408 1.0591359556726354 Q -1.6836290394176134 1.043454137490817 -1.6993108575994316 1.0145905011271807 Q -1.71499267578125 0.9857268647635444 -1.71499267578125 0.9470905011271809 Q -1.71499267578125 0.9084541374908172 -1.6995381303267043 0.8793632283999081 Q -1.684083584872159 0.8502723193089989 -1.656356312144886 0.8348177738544535 Q -1.6286290394176135 0.819363228399908 -1.593174493963068 0.819363228399908 Q -1.5577199485085225 0.819363228399908 -1.5311290394176136 0.8348177738544535 Q -1.5045381303267045 0.8502723193089989 -1.4902199485085226 0.8764086829453626 Q -1.4759017666903407 0.9025450465817262 -1.4759017666903407 0.934363228399908 Q -1.4759017666903407 0.9507268647635444 -1.4768108575994316 0.9593632283999081 M -1.5193108575994316 0.8861814102180898 Q -1.5309017666903408 0.8666359556726353 -1.5509017666903406 0.8566359556726353 Q -1.5709017666903407 0.8466359556726353 -1.5945381303267043 0.8466359556726353 Q -1.6299926757812497 0.8466359556726353 -1.6549926757812499 0.8693632283999081 Q -1.6799926757812498 0.8920905011271808 -1.6827199485085225 0.9334541374908172 L -1.5081744939630681 0.9334541374908172 Q -1.5077199485085226 0.9057268647635444 -1.5193108575994316 0.8861814102180898 M -1.4168066406249997 0.8795905011271807 Q -1.4013520951704543 0.8507268647635444 -1.3743066406249997 0.8350450465817263 Q -1.3472611860795451 0.819363228399908 -1.3131702769886362 0.819363228399908 Q -1.2804430042613635 0.819363228399908 -1.2540793678977271 0.835272319308999 Q -1.2277157315340907 0.8511814102180899 -1.2154430042613633 0.8766359556726353 L -1.2154430042613633 0.7348177738544535 L -1.1836248224431816 0.7348177738544535 L -1.1836248224431816 1.0711814102180899 L -1.2154430042613633 1.0711814102180899 L -1.2154430042613633 1.0157268647635445 Q -1.2268066406249998 1.0416359556726353 -1.2527157315340907 1.0582268647635444 Q -1.2786248224431815 1.0748177738544535 -1.3136248224431817 1.0748177738544535 Q -1.3477157315340906 1.0748177738544535 -1.3747611860795452 1.0589086829453627 Q -1.4018066406249998 1.0429995920362718 -1.4170339133522725 1.0139086829453625 Q -1.4322611860795453 0.9848177738544535 -1.4322611860795453 0.9466359556726354 Q -1.4322611860795453 0.9084541374908172 -1.4168066406249997 0.8795905011271807 M -1.2277157315340907 0.8943632283999081 Q -1.239988458806818 0.8716359556726353 -1.2611248224431817 0.8593632283999081 Q -1.2822611860795452 0.8470905011271808 -1.3077157315340906 0.8470905011271808 Q -1.334079367897727 0.8470905011271808 -1.354988458806818 0.8589086829453626 Q -1.375897549715909 0.8707268647635444 -1.3879430042613634 0.8932268647635444 Q -1.3999884588068179 0.9157268647635444 -1.3999884588068179 0.9466359556726354 Q -1.3999884588068179 0.9770905011271808 -1.3879430042613634 1.0000450465817263 Q -1.375897549715909 1.0229995920362718 -1.354988458806818 1.0350450465817262 Q -1.334079367897727 1.0470905011271807 -1.3077157315340906 1.0470905011271807 Q -1.2822611860795452 1.0470905011271807 -1.2611248224431817 1.0348177738544535 Q -1.239988458806818 1.0225450465817263 -1.2277157315340907 0.9998177738544535 Q -1.2154430042613633 0.9770905011271808 -1.2154430042613633 0.9470905011271809 Q -1.2154430042613633 0.9170905011271808 -1.2277157315340907 0.8943632283999081 M -1.109994007457386 0.8795905011271807 Q -1.0945394620028406 0.8507268647635444 -1.067494007457386 0.8350450465817263 Q -1.0404485529119314 0.819363228399908 -1.0063576438210224 0.819363228399908 Q -0.9736303710937497 0.819363228399908 -0.9472667347301134 0.835272319308999 Q -0.920903098366477 0.8511814102180899 -0.9086303710937497 0.8766359556726353 L -0.9086303710937497 0.7348177738544535 L -0.8768121892755678 0.7348177738544535 L -0.8768121892755678 1.0711814102180899 L -0.9086303710937497 1.0711814102180899 L -0.9086303710937497 1.0157268647635445 Q -0.919994007457386 1.0416359556726353 -0.9459030983664769 1.0582268647635444 Q -0.9718121892755679 1.0748177738544535 -1.006812189275568 1.0748177738544535 Q -1.0409030983664769 1.0748177738544535 -1.0679485529119315 1.0589086829453627 Q -1.094994007457386 1.0429995920362718 -1.1102212801846587 1.0139086829453625 Q -1.1254485529119316 0.9848177738544535 -1.1254485529119316 0.9466359556726354 Q -1.1254485529119316 0.9084541374908172 -1.109994007457386 0.8795905011271807 M -0.920903098366477 0.8943632283999081 Q -0.9331758256392042 0.8716359556726353 -0.9543121892755678 0.8593632283999081 Q -0.9754485529119314 0.8470905011271808 -1.0009030983664768 0.8470905011271808 Q -1.0272667347301132 0.8470905011271808 -1.0481758256392042 0.8589086829453626 Q -1.0690849165482952 0.8707268647635444 -1.0811303710937497 0.8932268647635444 Q -1.0931758256392041 0.9157268647635444 -1.0931758256392041 0.9466359556726354 Q -1.0931758256392041 0.9770905011271808 -1.0811303710937497 1.0000450465817263 Q -1.0690849165482952 1.0229995920362718 -1.0481758256392042 1.0350450465817262 Q -1.0272667347301132 1.0470905011271807 -1.0009030983664768 1.0470905011271807 Q -0.9754485529119314 1.0470905011271807 -0.9543121892755678 1.0348177738544535 Q -0.9331758256392042 1.0225450465817263 -0.920903098366477 0.9998177738544535 Q -0.9086303710937497 0.9770905011271808 -0.9086303710937497 0.9470905011271809 Q -0.9086303710937497 0.9170905011271808 -0.920903098366477 0.8943632283999081 M -0.8045450106534088 0.7693632283999081 Q -0.8113631924715906 0.7625450465817263 -0.8113631924715906 0.7525450465817263 Q -0.8113631924715906 0.7425450465817263 -0.8045450106534088 0.7359541374908172 Q -0.7977268288352269 0.7293632283999081 -0.7881813742897724 0.7293632283999081 Q -0.7786359197443179 0.7293632283999081 -0.7718177379261361 0.7359541374908172 Q -0.7649995561079542 0.7425450465817263 -0.7649995561079542 0.7525450465817263 Q -0.7649995561079542 0.7625450465817263 -0.7718177379261361 0.7693632283999081 Q -0.7786359197443179 0.77618141021809 -0.7881813742897724 0.77618141021809 Q -0.7977268288352269 0.77618141021809 -0.8045450106534088 0.7693632283999081 M -0.7722722833806814 0.8229995920362717 L -0.7722722833806814 1.0711814102180899 L -0.8040904651988633 1.0711814102180899 L -0.8040904651988633 0.8229995920362717 L -0.7722722833806814 0.8229995920362717 M -0.5109068714488633 0.8459541374908172 Q -0.48272505326704507 0.8734541374908171 -0.48272505326704507 0.9257268647635444 L -0.48272505326704507 1.0711814102180899 L -0.5140886896306814 1.0711814102180899 L -0.5140886896306814 0.929363228399908 Q -0.5140886896306814 0.8889086829453626 -0.5343159623579542 0.8675450465817263 Q -0.5545432350852268 0.8461814102180899 -0.5895432350852269 0.8461814102180899 Q -0.6254523259943178 0.8461814102180899 -0.6468159623579541 0.8689086829453626 Q -0.6681795987215906 0.8916359556726353 -0.6681795987215906 0.9357268647635444 L -0.6681795987215906 1.0711814102180899 L -0.6999977805397724 1.0711814102180899 L -0.6999977805397724 0.8229995920362717 L -0.6681795987215906 0.8229995920362717 L -0.6681795987215906 0.865272319308999 Q -0.6563614169034088 0.8425450465817262 -0.6340886896306814 0.8304995920362717 Q -0.6118159623579542 0.8184541374908172 -0.583634144176136 0.8184541374908172 Q -0.5390886896306815 0.8184541374908172 -0.5109068714488633 0.8459541374908172 M -0.2472725053267042 0.8357268647635444 Q -0.22136341441761329 0.8520905011271808 -0.2099997780539769 0.8770905011271808 L -0.2099997780539769 0.8229995920362717 L -0.1781815962357951 0.8229995920362717 L -0.1781815962357951 1.0775450465817262 Q -0.1781815962357951 1.1116359556726354 -0.19295432350852237 1.1379995920362718 Q -0.20772705078124964 1.1643632283999081 -0.234090687144886 1.1786814102180898 Q -0.2604543235085224 1.1929995920362717 -0.294090687144886 1.1929995920362717 Q -0.34181795987215874 1.1929995920362717 -0.3734088689630678 1.170272319308999 Q -0.4049997780539769 1.1475450465817263 -0.41272705078124966 1.1084541374908172 L -0.3813634144176133 1.1084541374908172 Q -0.3731815962357951 1.134363228399908 -0.35022705078124966 1.1498177738544535 Q -0.32727250532670416 1.1652723193089989 -0.294090687144886 1.1652723193089989 Q -0.2699997780539769 1.1652723193089989 -0.25090886896306785 1.1550450465817264 Q -0.23181795987215872 1.1448177738544536 -0.22090886896306783 1.1248177738544536 Q -0.2099997780539769 1.1048177738544536 -0.2099997780539769 1.0775450465817262 L -0.2099997780539769 1.01618141021809 Q -0.22181795987215874 1.0416359556726353 -0.2474997780539769 1.0582268647635444 Q -0.2731815962357951 1.0748177738544535 -0.3081815962357951 1.0748177738544535 Q -0.34227250532670417 1.0748177738544535 -0.36931795987215876 1.0589086829453627 Q -0.3963634144176133 1.0429995920362718 -0.411590687144886 1.0139086829453625 Q -0.42681795987215876 0.9848177738544535 -0.42681795987215876 0.9466359556726354 Q -0.42681795987215876 0.9084541374908172 -0.411590687144886 0.8795905011271807 Q -0.3963634144176133 0.8507268647635444 -0.36931795987215876 0.8350450465817263 Q -0.34227250532670417 0.819363228399908 -0.3081815962357951 0.819363228399908 Q -0.2731815962357951 0.819363228399908 -0.2472725053267042 0.8357268647635444 M -0.2222725053267042 0.8943632283999081 Q -0.23454523259943147 0.8716359556726353 -0.2556815962357951 0.8593632283999081 Q -0.27681795987215874 0.8470905011271808 -0.3022725053267042 0.8470905011271808 Q -0.32863614169034056 0.8470905011271808 -0.3495452325994315 0.8589086829453626 Q -0.37045432350852237 0.8707268647635444 -0.38249977805397695 0.8932268647635444 Q -0.3945452325994315 0.9157268647635444 -0.3945452325994315 0.9466359556726354 Q -0.3945452325994315 0.9770905011271808 -0.38249977805397695 1.0000450465817263 Q -0.37045432350852237 1.0229995920362718 -0.3495452325994315 1.0350450465817262 Q -0.32863614169034056 1.0470905011271807 -0.3022725053267042 1.0470905011271807 Q -0.27681795987215874 1.0470905011271807 -0.2556815962357951 1.0348177738544535 Q -0.23454523259943147 1.0225450465817263 -0.2222725053267042 0.9998177738544535 Q -0.2099997780539769 0.9770905011271808 -0.2099997780539769 0.9470905011271809 Q -0.2099997780539769 0.9170905011271808 -0.2222725053267042 0.8943632283999081 M -0.08977805397727236 1.0550450465817263 Q -0.11682350852272691 1.035272319308999 -0.12000532670454508 1.0011814102180898 L -0.08727805397727237 1.0011814102180898 Q -0.08500532670454508 1.0220905011271808 -0.06750532670454508 1.0350450465817262 Q -0.05000532670454509 1.0479995920362717 -0.020459872159090536 1.0479995920362717 Q 0.005449218750000373 1.0479995920362717 0.020221946022727644 1.0357268647635445 Q 0.034994673295454914 1.023454137490817 0.034994673295454914 1.005272319308999 Q 0.034994673295454914 0.9925450465817263 0.026812855113636735 0.9843632283999081 Q 0.018631036931818556 0.9761814102180899 0.006131036931818545 0.9714086829453626 Q -0.006368963068181438 0.9666359556726354 -0.027732599431817814 0.9611814102180899 Q -0.05545987215909054 0.9539086829453626 -0.07273259943181781 0.9466359556726354 Q -0.09000532670454509 0.939363228399908 -0.10205078124999964 0.9250450465817263 Q -0.11409623579545418 0.9107268647635445 -0.11409623579545418 0.8866359556726353 Q -0.11409623579545418 0.8684541374908171 -0.10318714488636327 0.8529995920362717 Q -0.09227805397727236 0.8375450465817262 -0.07227805397727236 0.8284541374908172 Q -0.052278053977272365 0.819363228399908 -0.0268235085227269 0.819363228399908 Q 0.013176491477273095 0.819363228399908 0.03772194602272763 0.8395905011271808 Q 0.062267400568182196 0.8598177738544535 0.064085582386364 0.895272319308999 L 0.0322674005681822 0.895272319308999 Q 0.030903764204545825 0.8734541374908171 0.01522194602272764 0.8600450465817262 Q -0.00045987215909054635 0.8466359556726353 -0.027732599431817814 0.8466359556726353 Q -0.05182350852272691 0.8466359556726353 -0.06682350852272691 0.8579995920362717 Q -0.0818235085227269 0.8693632283999081 -0.0818235085227269 0.8861814102180898 Q -0.0818235085227269 0.9007268647635445 -0.07295987215909054 0.9100450465817262 Q -0.06409623579545418 0.919363228399908 -0.05091441761363599 0.9245905011271808 Q -0.03773259943181781 0.9298177738544535 -0.015459872159090532 0.9361814102180899 Q 0.011358309659091265 0.9434541374908172 0.027267400568182193 0.950272319308999 Q 0.04317649147727309 0.9570905011271807 0.05454012784090945 0.9702723193089989 Q 0.06590376420454583 0.9834541374908171 0.06635830965909129 1.005272319308999 Q 0.06635830965909129 1.025272319308999 0.05544921875000036 1.040954137490817 Q 0.044540127840909466 1.0566359556726352 0.024994673295454906 1.0657268647635445 Q 0.005449218750000373 1.0748177738544535 -0.020005326704545093 1.0748177738544535 Q -0.06273259943181782 1.0748177738544535 -0.08977805397727236 1.0550450465817263 M 0.49272039240056853 1.0711814102180899 L 0.4495385742187503 1.0270905011271807 Q 0.4263567560369322 1.0525450465817263 0.3999931196732958 1.0645905011271808 Q 0.37362948330965945 1.0766359556726353 0.3404476651278413 1.0766359556726353 Q 0.30862948330965945 1.0766359556726353 0.2840840287642049 1.0645905011271808 Q 0.2595385742187504 1.0525450465817263 0.24590221058238673 1.0307268647635444 Q 0.2322658469460231 1.0089086829453626 0.2322658469460231 0.9802723193089989 Q 0.2322658469460231 0.9466359556726354 0.2513567560369322 0.9216359556726353 Q 0.27044766512784124 0.8966359556726353 0.3072658469460231 0.8825450465817263 Q 0.2913567560369322 0.8648177738544536 0.2840840287642049 0.8495905011271808 Q 0.27681130149147765 0.8343632283999081 0.27681130149147765 0.8166359556726354 Q 0.27681130149147765 0.78618141021809 0.29862948330965944 0.7673177738544535 Q 0.3204476651278413 0.7484541374908171 0.35681130149147766 0.7484541374908171 Q 0.3909022105823867 0.7484541374908171 0.4122658469460231 0.7679995920362717 Q 0.43362948330965945 0.7875450465817262 0.4322658469460231 0.8189086829453627 L 0.40044766512784125 0.8189086829453627 Q 0.40090221058238673 0.7984541374908172 0.3879476651278413 0.7866359556726353 Q 0.37499311967329585 0.7748177738544535 0.35544766512784126 0.7748177738544535 Q 0.33453857421875033 0.7748177738544535 0.3215840287642049 0.7864086829453626 Q 0.30862948330965945 0.7979995920362717 0.30862948330965945 0.8161814102180899 Q 0.30862948330965945 0.8307268647635444 0.3165840287642049 0.8443632283999081 Q 0.3245385742187504 0.8579995920362717 0.34181130149147765 0.8766359556726353 L 0.44635675603693215 0.9825450465817263 Q 0.45272039240056855 0.9739086829453626 0.4636294833096595 0.9552723193089989 L 0.49272039240056853 0.9066359556726353 L 0.5268113014914776 0.9066359556726353 L 0.49226584694602304 0.9661814102180899 Q 0.47999311967329583 0.9875450465817263 0.4677203924005685 1.004363228399908 L 0.5340840287642049 1.0711814102180899 L 0.49272039240056853 1.0711814102180899 M 0.3884022105823867 1.0384541374908172 Q 0.4095385742187504 1.0279995920362717 0.42862948330965944 1.0057268647635444 L 0.3272658469460231 0.9029995920362717 Q 0.2640840287642049 0.9261814102180899 0.2640840287642049 0.9793632283999081 Q 0.2640840287642049 0.9993632283999081 0.27385675603693216 1.0150450465817262 Q 0.2836294833096594 1.0307268647635444 0.30090221058238675 1.0398177738544536 Q 0.31817493785511397 1.0489086829453627 0.3404476651278413 1.0489086829453627 Q 0.3672658469460231 1.0489086829453627 0.3884022105823867 1.0384541374908172 M 0.7340753728693186 0.7793632283999081 L 0.7340753728693186 0.8979995920362717 L 0.8545299183238639 0.8979995920362717 L 0.8545299183238639 0.924363228399908 L 0.7340753728693186 0.924363228399908 L 0.7340753728693186 1.0448177738544535 L 0.8681662819602276 1.0448177738544535 L 0.8681662819602276 1.0711814102180899 L 0.7022571910511367 1.0711814102180899 L 0.7022571910511367 0.7529995920362718 L 0.8681662819602276 0.7529995920362718 L 0.8681662819602276 0.7793632283999081 L 0.7340753728693186 0.7793632283999081 M 1.0190711558948866 1.0402723193089989 L 1.1027075195312503 0.8229995920362717 L 1.1363438831676138 0.8229995920362717 L 1.0367984286221594 1.0711814102180899 L 1.0008893377130685 1.0711814102180899 L 0.9013438831676139 0.8229995920362717 L 0.935434792258523 0.8229995920362717 L 1.0190711558948866 1.0402723193089989 M 1.4031607333096594 0.9593632283999081 L 1.1972516424005686 0.9593632283999081 Q 1.1986152787642048 0.9875450465817263 1.210888006036932 1.0075450465817262 Q 1.2231607333096595 1.0275450465817262 1.2431607333096595 1.037772319308999 Q 1.2631607333096593 1.0479995920362717 1.286797096946023 1.0479995920362717 Q 1.317706187855114 1.0479995920362717 1.3388425514914775 1.0329995920362718 Q 1.3599789151278412 1.0179995920362717 1.366797096946023 0.9925450465817263 L 1.4004334605823867 0.9925450465817263 Q 1.3913425514914777 1.0289086829453626 1.3615698242187504 1.051863228399908 Q 1.331797096946023 1.0748177738544535 1.286797096946023 1.0748177738544535 Q 1.251797096946023 1.0748177738544535 1.2240698242187502 1.0591359556726354 Q 1.1963425514914776 1.043454137490817 1.1806607333096595 1.0145905011271807 Q 1.1649789151278411 0.9857268647635444 1.1649789151278411 0.9470905011271809 Q 1.1649789151278411 0.9084541374908172 1.1804334605823867 0.8793632283999081 Q 1.1958880060369321 0.8502723193089989 1.223615278764205 0.8348177738544535 Q 1.2513425514914776 0.819363228399908 1.286797096946023 0.819363228399908 Q 1.3222516424005684 0.819363228399908 1.3488425514914777 0.8348177738544535 Q 1.3754334605823866 0.8502723193089989 1.3897516424005685 0.8764086829453626 Q 1.4040698242187504 0.9025450465817262 1.4040698242187504 0.934363228399908 Q 1.4040698242187504 0.9507268647635444 1.4031607333096594 0.9593632283999081 M 1.3606607333096594 0.8861814102180898 Q 1.3490698242187502 0.8666359556726353 1.3290698242187502 0.8566359556726353 Q 1.3090698242187504 0.8466359556726353 1.2854334605823867 0.8466359556726353 Q 1.249978915127841 0.8466359556726353 1.2249789151278412 0.8693632283999081 Q 1.1999789151278413 0.8920905011271808 1.1972516424005686 0.9334541374908172 L 1.3717970969460231 0.9334541374908172 Q 1.3722516424005684 0.9057268647635444 1.3606607333096594 0.8861814102180898 M 1.6513467684659093 0.8459541374908172 Q 1.6795285866477276 0.8734541374908171 1.6795285866477276 0.9257268647635444 L 1.6795285866477276 1.0711814102180899 L 1.6481649502840912 1.0711814102180899 L 1.6481649502840912 0.929363228399908 Q 1.6481649502840912 0.8889086829453626 1.6279376775568186 0.8675450465817263 Q 1.6077104048295459 0.8461814102180899 1.5727104048295457 0.8461814102180899 Q 1.5368013139204548 0.8461814102180899 1.5154376775568186 0.8689086829453626 Q 1.494074041193182 0.8916359556726353 1.494074041193182 0.9357268647635444 L 1.494074041193182 1.0711814102180899 L 1.4622558593750004 1.0711814102180899 L 1.4622558593750004 0.8229995920362717 L 1.494074041193182 0.8229995920362717 L 1.494074041193182 0.865272319308999 Q 1.505892223011364 0.8425450465817262 1.5281649502840913 0.8304995920362717 Q 1.5504376775568185 0.8184541374908172 1.5786194957386368 0.8184541374908172 Q 1.6231649502840912 0.8184541374908172 1.6513467684659093 0.8459541374908172 M 1.7913447709517047 0.8498177738544535 L 1.7913447709517047 1.0039086829453625 Q 1.7913447709517047 1.0266359556726354 1.7999811345880685 1.035272319308999 Q 1.808617498224432 1.0439086829453625 1.8304356800426138 1.0439086829453625 L 1.859526589133523 1.0439086829453625 L 1.859526589133523 1.0711814102180899 L 1.825435680042614 1.0711814102180899 Q 1.7917993164062502 1.0711814102180899 1.7754356800426139 1.0554995920362717 Q 1.7590720436789775 1.0398177738544536 1.7590720436789775 1.0039086829453625 L 1.7590720436789775 0.8498177738544535 L 1.724526589133523 0.8498177738544535 L 1.724526589133523 0.8229995920362717 L 1.7590720436789775 0.8229995920362717 L 1.7590720436789775 0.7607268647635445 L 1.7913447709517047 0.7607268647635445 L 1.7913447709517047 0.8229995920362717 L 1.859526589133523 0.8229995920362717 L 1.859526589133523 0.8498177738544535 L 1.7913447709517047 0.8498177738544535 M 1.9274893465909093 1.0550450465817263 Q 1.9004438920454547 1.035272319308999 1.8972620738636365 1.0011814102180898 L 1.9299893465909093 1.0011814102180898 Q 1.9322620738636367 1.0220905011271808 1.9497620738636365 1.0350450465817262 Q 1.9672620738636366 1.0479995920362717 1.9968075284090911 1.0479995920362717 Q 2.022716619318182 1.0479995920362717 2.037489346590909 1.0357268647635445 Q 2.052262073863637 1.023454137490817 2.052262073863637 1.005272319308999 Q 2.052262073863637 0.9925450465817263 2.0440802556818185 0.9843632283999081 Q 2.0358984375 0.9761814102180899 2.0233984375 0.9714086829453626 Q 2.0108984375000003 0.9666359556726354 1.9895348011363638 0.9611814102180899 Q 1.9618075284090912 0.9539086829453626 1.944534801136364 0.9466359556726354 Q 1.9272620738636366 0.939363228399908 1.915216619318182 0.9250450465817263 Q 1.9031711647727276 0.9107268647635445 1.9031711647727276 0.8866359556726353 Q 1.9031711647727276 0.8684541374908171 1.9140802556818184 0.8529995920362717 Q 1.9249893465909094 0.8375450465817262 1.9449893465909094 0.8284541374908172 Q 1.9649893465909094 0.819363228399908 1.9904438920454548 0.819363228399908 Q 2.030443892045455 0.819363228399908 2.0549893465909093 0.8395905011271808 Q 2.079534801136364 0.8598177738544535 2.0813529829545456 0.895272319308999 L 2.049534801136364 0.895272319308999 Q 2.0481711647727274 0.8734541374908171 2.0324893465909093 0.8600450465817262 Q 2.016807528409091 0.8466359556726353 1.9895348011363638 0.8466359556726353 Q 1.9654438920454549 0.8466359556726353 1.9504438920454548 0.8579995920362717 Q 1.9354438920454549 0.8693632283999081 1.9354438920454549 0.8861814102180898 Q 1.9354438920454549 0.9007268647635445 1.9443075284090912 0.9100450465817262 Q 1.9531711647727275 0.919363228399908 1.9663529829545456 0.9245905011271808 Q 1.9795348011363638 0.9298177738544535 2.001807528409091 0.9361814102180899 Q 2.028625710227273 0.9434541374908172 2.044534801136364 0.950272319308999 Q 2.0604438920454546 0.9570905011271807 2.0718075284090913 0.9702723193089989 Q 2.0831711647727276 0.9834541374908171 2.083625710227273 1.005272319308999 Q 2.083625710227273 1.025272319308999 2.0727166193181823 1.040954137490817 Q 2.061807528409091 1.0566359556726352 2.0422620738636366 1.0657268647635445 Q 2.022716619318182 1.0748177738544535 1.9972620738636366 1.0748177738544535 Q 1.954534801136364 1.0748177738544535 1.9274893465909093 1.0550450465817263" fill="#343432" fill-rule="nonzero"></path></g><g clip-path="url(#SvgjsClipPath1002)"><g clip-path="url(#SvgjsClipPath1001c27edd46-85c0-43ec-8d03-0aca1a524576)"><path d=" M 0.277385109174922 -0.1875 C -0.3741626196767258 -0.1861792033840315 -0.9952270246666427 -0.4633231760448404 -1.4293966262681954 -0.9491348108587845 C -1.9798291762361004 -1.5659100077342243 -1.9271522661321738 -2.5118452631060983 -1.3116419173887894 -3.063691841544982 C -0.9067229156201422 -3.4251631606988746 -0.2855949638896489 -3.390563971926695 0.07667286943327345 -2.9863574288033923 C 0.19134763210395245 -2.8581926073767363 0.250400023253327 -2.6897156691282986 0.24083427395582047 -2.518003645422092 C 0.23126852465831882 -2.3462916217158845 0.1538685409433278 -2.185416184986264 0.02566788036247214 -2.0707814901005714 C -0.15167200648097667 -1.9125110006176327 -0.42365443804552094 -1.9276326438043896 -0.582356574306431 -2.1045863531552778 C -0.633456037796575 -2.1616924495086787 -0.6597735363431931 -2.2367609594741293 -0.6555180209207254 -2.3132733898249818 C -0.6512625054982628 -2.3897858201758337 -0.6167826661420817 -2.461472866398677 -0.5596656388313512 -2.5125601113908482 C -0.5207790805496395 -2.5473765322410937 -0.46964775103008605 -2.56530763942411 -0.41753328905180176 -2.5624041193996057 C -0.3654188270735226 -2.5595005993751014 -0.3165958016886643 -2.5360006067045537 -0.2818174493406098 -2.497079997976364 C -0.2734165047345023 -2.486811096706823 -0.27458219324996747 -2.4717499164928904 -0.2844631860106317 -2.4628959803274224 C -0.29434417877129104 -2.454042044161954 -0.3094425282725719 -2.4545297136081934 -0.31873156594438057 -2.4640028325608 C -0.3729282952329247 -2.524438310287924 -0.4658114283872796 -2.5296165671538087 -0.5263900104232953 -2.4755798404562475 C -0.5736994595190654 -2.4332653255552943 -0.6022582720420404 -2.3738876771822706 -0.605781816934787 -2.3105134965056173 C -0.609305361827539 -2.2471393158289645 -0.5875049055758816 -2.184961739434798 -0.5451778403793344 -2.137663518570842 C -0.4047458643008548 -1.9811487104122627 -0.16415757161664501 -1.9677465342457667 -0.007210822060597311 -2.1076956067043406 C 0.11118009397308892 -2.2135694842894145 0.18266162657272167 -2.3621392331778512 0.19150743632864287 -2.5207186725890054 C 0.2003532460845594 -2.6792981120001595 0.1458386679303545 -2.8348961214868975 0.03995721582199585 -2.953280263387828 C -0.30406378285116276 -3.337055661667755 -0.8938182892258784 -3.3699348897178507 -1.2783662889807337 -3.0267777249412116 C -1.8734968374917653 -2.493193187990922 -1.9244274765563634 -1.5785724262648877 -1.392217892341104 -0.9822119762743489 C -0.5702758054741344 -0.06530315323514779 0.8375217936912158 0.01658917138001481 1.7602344347546748 -0.7988321712104614 L 1.7602344347546748 -1.7254558831620794 L 1.3044972496590248 -1.7254558831620794 L 1.3044972496590248 -1.339709980085768 C 1.3044972496590248 -1.3260089695657833 1.293390386117338 -1.3149021060240946 1.2796893755973529 -1.3149021060240946 C 1.2659883650773682 -1.3149021060240946 1.254881501535681 -1.3260089695657833 1.254881501535681 -1.339709980085768 L 1.254881501535681 -1.7254558831620794 L 0.4290108354398685 -1.7254558831620794 C 0.41530982491988344 -1.7254558831620794 0.40420296137819123 -1.736562746703768 0.40420296137819123 -1.750263757223753 L 0.40420296137819123 -2.348563525260481 C 0.40420296137819123 -2.362264535780466 0.41530982491988344 -2.3733713993221537 0.4290108354398685 -2.3733713993221537 L 1.279689375597348 -2.3733713993221537 C 1.293390386117333 -2.3733713993221537 1.30449724965902 -2.362264535780466 1.30449724965902 -2.348563525260481 L 1.30449724965902 -1.7750716312854262 L 1.7850423088163414 -1.7750716312854262 C 1.7987433193363265 -1.7750716312854262 1.8098501828780134 -1.7639647677437378 1.8098501828780134 -1.750263757223753 L 1.8098501828780134 -0.7876520892999994 C 1.8098406204912931 -0.7806044281916837 1.8068339186019167 -0.7738934695745945 1.801580891524128 -0.7691950309981159 C 1.382686494937136 -0.3938832018125411 0.8398180818127072 -0.18670256133497443 0.2773851091749273 -0.18750000000000044 Z M 0.45381870950154046 -1.7752039399470887 L 1.254881501535676 -1.7752039399470887 L 1.254881501535676 -2.323755651198807 L 0.45381870950154046 -2.323755651198807 Z" fill="#343432" transform="matrix(1,0,0,1,0,0)" fill-rule="nonzero"></path></g><g clip-path="url(#SvgjsClipPath1001c27edd46-85c0-43ec-8d03-0aca1a524576)"><path d=" M 1.2796893755973529 -0.9411301368282179 C 1.1940672023114345 -0.9411301368282179 1.1168759395830097 -0.9927076896173688 1.0841097524233956 -1.0718122630453593 C 1.0513435652637864 -1.1509168364733484 1.0694551932531937 -1.2419701391311886 1.1299992126035934 -1.3025141584815878 C 1.1905432319539935 -1.3630581778319864 1.281596534611827 -1.381169805821394 1.3607011080398161 -1.3484036186617825 C 1.4398056814678106 -1.3156374315021713 1.4913832342569588 -1.2384461687737431 1.4913832342569588 -1.15282399548783 C 1.4913832342569588 -1.0359087057172909 1.3966046653678907 -0.9411301368282183 1.279689375597348 -0.9411301368282179 Z M 1.2796893755973529 -1.3149021060240946 C 1.2141348991753225 -1.3149021060240946 1.1550353386488712 -1.2754130421699008 1.129948726604791 -1.2148486031390964 C 1.1048621145607156 -1.1542841641082915 1.1187288297401061 -1.084571479260883 1.1650828445552517 -1.0382174644457338 C 1.2114368593704021 -0.9918634496305847 1.2811495442178094 -0.9779967344511942 1.341713983248617 -1.0030833464952718 C 1.4022784222794196 -1.0281699585393493 1.441767486133615 -1.0872695190658024 1.441767486133615 -1.1528239954878292 C 1.4416581342883148 -1.2422919300544017 1.3691573101639343 -1.314792754178786 1.2796893755973582 -1.3149021060240946 Z" fill="#343432" transform="matrix(1,0,0,1,0,0)" fill-rule="nonzero"></path></g></g></g><defs><clipPath id="SvgjsClipPath1002"><path d=" M -1.8098501828780187 -3.313689057755817 h 3.6197003657560374 v 3.126189057755817 h -3.6197003657560374 Z"></path></clipPath><clipPath id="SvgjsClipPath1001c27edd46-85c0-43ec-8d03-0aca1a524576"><path d=" M -1.8098501828780187 -3.313689057755817 L 1.8098501828780187 -3.313689057755817 L 1.8098501828780187 -0.1875 L -1.8098501828780187 -0.1875 Z"></path></clipPath></defs></svg>